<svg id="Layer_1" data-name="Layer 1" xmlns="http://www.w3.org/2000/svg" xmlns:xlink="http://www.w3.org/1999/xlink" viewBox="0 0 1920 1920"><defs><style>.cls-1{fill:#303030;}.cls-2{fill:url(#linear-gradient);}</style><linearGradient id="linear-gradient" x1="960" y1="1285.14" x2="960" y2="394.88" gradientUnits="userSpaceOnUse"><stop offset="0" stop-color="#4c98cf"/><stop offset="1" stop-color="#4873a6"/></linearGradient></defs><path class="cls-1" d="M224,1459.08a49.13,49.13,0,0,0-26,26,47.46,47.46,0,0,0-3.87,18.94v19.6a47.19,47.19,0,0,0,3.88,19,50.23,50.23,0,0,0,10.54,15.49A49.16,49.16,0,0,0,224,1568.52a47.89,47.89,0,0,0,19.1,3.88h95.84V1552H242.79a26.8,26.8,0,0,1-10.9-2.23,28.71,28.71,0,0,1-8.95-6.14,30,30,0,0,1-6.11-9.13,27.15,27.15,0,0,1-2.23-10.85V1504a26.8,26.8,0,0,1,2.23-10.9,29.15,29.15,0,0,1,15.27-15.21,27.45,27.45,0,0,1,11-2.23h95.84V1455.2H243.1A47.89,47.89,0,0,0,224,1459.08Z"/><path class="cls-1" d="M395.58,1549.72a29.9,29.9,0,0,1-9.18-6.3,26.89,26.89,0,0,1-6.1-8.87,28.12,28.12,0,0,1-2.17-11.11V1455.2H357.68v68.24a47.61,47.61,0,0,0,3.89,19.2,49.46,49.46,0,0,0,25.87,25.87,47.23,47.23,0,0,0,19,3.89h95.84V1552H406.48A26.8,26.8,0,0,1,395.58,1549.72Z"/><path class="cls-1" d="M678.78,1469.55a49.63,49.63,0,0,0-15.51-10.47,47.89,47.89,0,0,0-19.1-3.88h-80.6a47.26,47.26,0,0,0-19,3.89,49.34,49.34,0,0,0-25.88,26,47.46,47.46,0,0,0-3.87,18.94v19.6a47.19,47.19,0,0,0,3.88,19,49.43,49.43,0,0,0,25.88,25.87,47.18,47.18,0,0,0,19,3.89h80.6a47.89,47.89,0,0,0,19.1-3.88,49.25,49.25,0,0,0,26-25.88,47.19,47.19,0,0,0,3.88-19V1504a47.3,47.3,0,0,0-3.88-18.94A49.78,49.78,0,0,0,678.78,1469.55Zm-6.11,54a26.8,26.8,0,0,1-2.23,10.9,29.49,29.49,0,0,1-6.17,9,29,29,0,0,1-9.11,6.16,27.27,27.27,0,0,1-11,2.24h-80.6a26.87,26.87,0,0,1-10.9-2.23,29.46,29.46,0,0,1-15.22-15.22,27,27,0,0,1-2.22-10.9V1504a27,27,0,0,1,2.22-10.9,29.43,29.43,0,0,1,15.23-15.22,26.88,26.88,0,0,1,10.89-2.22h80.6a27.4,27.4,0,0,1,11,2.23,29.05,29.05,0,0,1,9.11,6.17,29.5,29.5,0,0,1,6.17,9,26.8,26.8,0,0,1,2.23,10.9Z"/><path class="cls-1" d="M842.38,1523.91a26.44,26.44,0,0,1-2.23,10.75,28.38,28.38,0,0,1-6.14,8.94,29.85,29.85,0,0,1-9.13,6.11A27,27,0,0,1,814,1552H761.51a26.8,26.8,0,0,1-10.9-2.23,28.71,28.71,0,0,1-9-6.14,30,30,0,0,1-6.11-9.13,27.15,27.15,0,0,1-2.23-10.85v-68.4H712.87v68.4a47.19,47.19,0,0,0,3.88,19,50.23,50.23,0,0,0,10.54,15.49,49.36,49.36,0,0,0,15.34,10.38,47.56,47.56,0,0,0,19.19,3.89H814a47.23,47.23,0,0,0,19-3.89,49.59,49.59,0,0,0,15.34-10.38A50.28,50.28,0,0,0,859,1542.64a47.19,47.19,0,0,0,3.88-19v-68.4H842.38Z"/><path class="cls-1" d="M1034.65,1469.64a49.27,49.27,0,0,0-15.44-10.55,47.18,47.18,0,0,0-19-3.89H889.45v117.2h110.73a46.89,46.89,0,0,0,18.88-3.89,50.7,50.7,0,0,0,15.47-10.43,49.25,49.25,0,0,0,10.56-15.44,47.19,47.19,0,0,0,3.89-19V1504a46.85,46.85,0,0,0-3.89-18.88A51.08,51.08,0,0,0,1034.65,1469.64Zm-6.13,54a27,27,0,0,1-2.22,10.9,30.38,30.38,0,0,1-6.12,9.08,28.61,28.61,0,0,1-8.94,6.14,26.47,26.47,0,0,1-10.75,2.23H909.9v-76.29h90.28a27.07,27.07,0,0,1,10.84,2.23,30,30,0,0,1,9.14,6.11,28.58,28.58,0,0,1,6.13,8.94,26.47,26.47,0,0,1,2.23,10.75Z"/><path class="cls-1" d="M1204.69,1513.52a34.75,34.75,0,0,0-10.9-7.33,33.92,33.92,0,0,0-13.44-2.69h-79.49a12.31,12.31,0,0,1-9.44-4,16.7,16.7,0,0,1-4.48-10.33,15.79,15.79,0,0,1,1.22-5.29,11.83,11.83,0,0,1,2.84-4.13,16.82,16.82,0,0,1,4.52-3,12.67,12.67,0,0,1,5.34-1.09h107.9V1455.2h-107.9a33.14,33.14,0,0,0-13.5,2.8,35.79,35.79,0,0,0-10.85,7.39,34.74,34.74,0,0,0-7.32,10.8,33.28,33.28,0,0,0-2.71,13.39,33.89,33.89,0,0,0,10.14,24.36,35.2,35.2,0,0,0,11,7.31,33.56,33.56,0,0,0,13.29,2.7h79.49a13.85,13.85,0,0,1,5.48,1.08,13,13,0,0,1,4.39,3,14.39,14.39,0,0,1,3,4.56,14.11,14.11,0,0,1,1.08,5.49,13.51,13.51,0,0,1-1.06,5.37,14.4,14.4,0,0,1-3,4.47,14.09,14.09,0,0,1-4.47,3,13.31,13.31,0,0,1-5.37,1.07H1072.44v20.45h107.91a33.94,33.94,0,0,0,24.37-10.14,35.23,35.23,0,0,0,7.3-11,34.8,34.8,0,0,0,0-26.88A34.68,34.68,0,0,0,1204.69,1513.52Z"/><path class="cls-1" d="M1262.91,1459.08a49.13,49.13,0,0,0-26,26,47.46,47.46,0,0,0-3.87,18.94v19.6a47.19,47.19,0,0,0,3.88,19,50.23,50.23,0,0,0,10.54,15.49,49.16,49.16,0,0,0,15.43,10.39,47.89,47.89,0,0,0,19.1,3.88h95.84V1552H1281.7a26.8,26.8,0,0,1-10.9-2.23,28.71,28.71,0,0,1-9-6.14,30,30,0,0,1-6.11-9.13,27.15,27.15,0,0,1-2.23-10.85V1504a26.8,26.8,0,0,1,2.23-10.9,29.15,29.15,0,0,1,15.27-15.21,27.45,27.45,0,0,1,11-2.23h95.84V1455.2H1282A47.89,47.89,0,0,0,1262.91,1459.08Z"/><path class="cls-1" d="M1533,1469.51l-.07-.08a51.79,51.79,0,0,0-15.47-10.34,47.18,47.18,0,0,0-19-3.89h-53a46.77,46.77,0,0,0-18.87,3.89,50.83,50.83,0,0,0-15.48,10.44,49.25,49.25,0,0,0-10.56,15.44,47.17,47.17,0,0,0-3.88,19v68.4h20.45v-47h109.68v47h20.46V1504a47.18,47.18,0,0,0-3.89-19A51.43,51.43,0,0,0,1533,1469.51Zm-6.23,35.4H1417.05V1504a27,27,0,0,1,2.22-10.9,30.5,30.5,0,0,1,6.12-9.08,28.71,28.71,0,0,1,8.95-6.14,26.51,26.51,0,0,1,10.74-2.22h53.31a27,27,0,0,1,10.84,2.23,30,30,0,0,1,9.14,6.11,28.78,28.78,0,0,1,6.14,8.94,26.43,26.43,0,0,1,2.22,10.75Z"/><path class="cls-1" d="M1705.24,1454.89v93.32a4.06,4.06,0,0,1-1.63,3.28,6.25,6.25,0,0,1-6.4.92,4.12,4.12,0,0,1-1.7-1.31l-74.67-88a22.54,22.54,0,0,0-9.18-7.22,27.89,27.89,0,0,0-19.59-.66,25.47,25.47,0,0,0-8.28,4.52,26.25,26.25,0,0,0-6.09,7.2,22.46,22.46,0,0,0-2.86,9.18l-.22.64v95.6h20.46v-93.63a3.36,3.36,0,0,1,1.48-2.94,7.46,7.46,0,0,1,6.87-1A3.64,3.64,0,0,1,1605,1476l74.75,88.07a26.3,26.3,0,0,0,4.44,4.48,22.27,22.27,0,0,0,4.46,2.5,25.11,25.11,0,0,0,10.86,2.42,26.28,26.28,0,0,0,9.18-1.68,27.62,27.62,0,0,0,8.08-4.74,27.15,27.15,0,0,0,6.06-7.36,24.77,24.77,0,0,0,3-9.64l0-95.19Z"/><path class="cls-2" d="M1232,618.47C1064.14,618.47,927.6,755,927.6,922.84A239.43,239.43,0,0,1,688,1162.4c-132.09,0-239.56-107.47-239.56-239.56,0-121.8,91.36-222.65,209.14-237.65A304,304,0,0,0,696,802.43a32.4,32.4,0,0,0,56.17-32.31,239.47,239.47,0,0,1-31.74-119.25C720.43,518.77,827.9,411.3,960,411.3c83.84,0,162.69,44.77,205.78,116.82a32.4,32.4,0,1,0,55.61-33.26A304.25,304.25,0,0,0,960,346.5C802.58,346.5,672.7,466.63,657.19,620c-153.4,15.51-273.52,145.4-273.52,302.82,0,167.82,136.54,304.36,304.36,304.36A304.23,304.23,0,0,0,992.4,922.84c0-132.1,107.47-239.57,239.57-239.57s239.56,107.47,239.56,239.57S1364.06,1162.4,1232,1162.4a239.34,239.34,0,0,1-119.76-32,32.4,32.4,0,1,0-32.45,56.09A304.2,304.2,0,0,0,1232,1227.2c167.82,0,304.36-136.54,304.36-304.36S1399.79,618.47,1232,618.47Z"/></svg>