<?xml version="1.0" encoding="UTF-8"?><svg id="Layer_2" xmlns="http://www.w3.org/2000/svg" viewBox="0 0 300 505.54"><g id="BG"><g><path d="M240,177.77c0,49.63-40.37,90-90,90s-90-40.37-90-90v-57.77h60V60H60V0H0V180.01H.03c1.2,81.68,68.01,147.77,149.97,147.77,33.74,0,64.91-11.2,90-30.08v62.31c0,47.16-38.37,85.53-85.53,85.53-24.21,0-47.39-10.33-63.6-28.34l-44.6,40.14c27.57,30.64,67.01,48.21,108.2,48.21,80.25,0,145.53-65.29,145.53-145.53h0V120.01h-60v57.77Z"/><rect x="240" width="60" height="60"/></g></g></svg>