<svg id="Layer_4" data-name="Layer 4" xmlns="http://www.w3.org/2000/svg" viewBox="0 0 600 600"><defs><style>.cls-1{fill:none;stroke:#000;stroke-linecap:round;stroke-linejoin:round;stroke-width:3px;}</style></defs><path class="cls-1" d="M386.63,539.65s-70.82-10.21-62.27-34.22,36.15-37.81,32-78.37-4.41-45.54,5-52.71,10.49-17.52,2.76-25.67-9.93-12.55,2.21-13,85,5.52,92.45,8.28-3.45,30.63-23.46,41.12-36.15,5.24-45.26,57.68.28,91.89-22.35,101.83-73.55.55-73.68-27.6,29.94-33.53,37.53-66.51,3.17-44.43.55-58.78,14.9-15.86,15.45-29.52-14.07-17.43-12.83-26.52,45.81-24.81,47.88-58.48-20.83-72.44-16.42-77.41,94-1.65,127.22,18.22,39.46,74.64,12.42,100S390,324.54,340,321.36,262.68,348,242.82,357.79s-19.6,11.59-18.49.83.9-16.26,12.91-23.16,55.94-32.45,74.84-35.35,35.6,5.25,40-.27S377.76,255,355.82,222s-58.23-31.46-90.24-54.23S227,131.34,227,131.34s17.38,70.26,4.69,151.11-44.71,168.62-87.21,163.93S63,339,82.34,198.84,175.11,7.61,204.83,93.69C227.22,158.55,212.6,300,212.6,300s-90.41-1.45-85.55-54c4.41-47.75,40.19-34.24,37.43-3.34-2.66,29.82-7.64,55.94-25.8,48-27.62-12.1-31.78-66.13.26-87.07,21-13.73,56-6.79,62.07-1.27s8.22,25.13,4.35,37.55"/></svg>