<svg id="Layer_2" data-name="Layer 2" xmlns="http://www.w3.org/2000/svg" viewBox="0 0 600 600"><defs><style>.cls-1{fill:none;stroke:#000;stroke-linecap:round;stroke-linejoin:round;stroke-width:3px;}</style></defs><path class="cls-1" d="M157.1,332.73S9.46,365.83,60.47,467.19s359,28,458.79-36.49c22.32-14.43,47.3-58.11,16.89-74.33-18.85-10.05-56.76,8.79-56.76,8.79S477,336.1,467.23,311.78s-13.17-70.95-8.78-113.51,1.35-60.14-14.19-58.79S428,210.09,423.31,251.65s-5.4,77.7,2.71,110.13,9.12,69.93,23,68.92,5.74-65.88,10.81-109.46,31.08-211.49-15.54-213.51S252,118.2,209.8,117.86s-62.16,1.35-62.16,1.35S273.31,100,346.29,99.62s127,21.62,52,31.75S187.84,129,187.5,140.83s248,6.76,268.24-10.13-37.5-48.65-99.32-48S236.49,96.24,194.93,98.27s-71.28,5.74-65.54,58.1,36.15,222,83.11,256.09S316.93,457.39,313,472.59s-132.85,16.64-153.12-30-5.19-93.05-5.19-93.05,6.77,20.67,103,21,193.92-40.2,207.43,4.06,75,23,60.14,2.7-49-10.13-109.46,30.41S258.11,513.81,148.31,493.54,75,380.36,136.15,348.27"/></svg>