<svg id="Layer_3" data-name="Layer 3" xmlns="http://www.w3.org/2000/svg" viewBox="0 0 600 600"><defs><style>.cls-1{fill:none;stroke:#000;stroke-linecap:round;stroke-linejoin:round;stroke-width:3px;}</style></defs><path class="cls-1" d="M312.09,538.08S315,549.63,302,549.63c-18.22,0-6.34-67.41-12.1-161.91S277,154.79,248.73,174c-19.11,13,8.36,60,36.3,40.91,23.45-16,38.13-56.85,18.54-54.26s-9,51.67,21.79,57.14,43.79-42.92,28.81-41.48-30.25,51.8-31.11,109.3-9.17,92.36-9.17,92.36,39.6,8.06,49.79-17-1.1-38,40-63.09c56.18-34.28,100.55-247.55-104-247.47-177.5.07-174.58,175.7-110.62,235.2,37.59,35,52.39,60.8,47.82,87.46-3.46,20.17-4.42,26.7,34.57,25.93,29.46-.58,87-19.3,95.07-1.15s-23.23,31.69-52.67,26.5S248.44,409,246.72,429.5s30.82,20.16,58.77,15.55,46.09-15,53.58,2.88-20.62,27.66-50.93,21.61-61.42-6.34-58.54,8.07,19.3,20.74,52.43,13.83,51.86-1.45,50.7,8.06c-1.77,14.61-29.82,12.44-44.59,10.37s-43.85-4-36.65,6.34,13.45,11,34.76,9.32,28.05.16,28.62,6.08-44.94,9.76-56.46,5.44"/></svg>