<svg id="Layer_5" data-name="Layer 5" xmlns="http://www.w3.org/2000/svg" viewBox="0 0 600 600"><defs><style>.cls-1{fill:none;stroke:#000;stroke-linecap:round;stroke-linejoin:round;stroke-width:3px;}</style></defs><path class="cls-1" d="M80.72,474.81s18.83,17.3,34.6,17.94,5.09-8.65,11.45-8-1.59,9.41,9.86,10.81,17.81,1.52,25.06,1.14,5.34-9.16,10.68-9-.89,9,7.51,9.22,23.85,2.55,29.45-2.35,3.62-25.31,21.75-24.81,50.44,3.18,56.93,10-1.13,8.88,11.68,12.33c8.1,2.18,19.67,3.64,22.54,1.92s.76-7.95,5.66-7.31-1.21,8.77,8.46,12.21,19.9,2.92,23.28,1.4,1.59-9.61,6.48-9.1.19,9.42,9.54,11.07,16.54,1.91,22.52,0,2.23-10.37,7.76-10.43,1.4,8.52,7,9.16,21.88,1.14,26.39-3.37,3.44-12,7.51-12.09-.19,9.42,13.23,7.06,16.22-4.32,19.33-9,2.29-9.28,5.73-7.37-.51,7.56,7.25,6.87,39-11,41.85-27.42-.32-23-6.11-20.22-42.76,38-147.28,32.76c-93.5-4.73-116.29-20.17-161.58-19.92S94.58,460.82,102.14,392c6.21-56.52,3.09-60.52-9.21-133.82-12.46-74.29-32.31-90.07-27.47-103.81s31.29-6.61,75.3-14.75,75.06-27.22,92.1-4.58S253.56,225.1,283,272.42s39.63,41.23,38.84,36.17c-1.06-6.91-20.82-14.71-17.77-61.95s44.27-145.86,16.62-149.76-50,15.43-54.27,37.31-15.56,68.73-32.52,69.92-19.39-17-4.8-13.27,21.16,21.41,21.41,34.26-14,25.83-18.82,10.94,16.92-14.5,26.71,8.14-3.31,43.38-10.94,30.53,19.59-15.64,32.31,2,2.17,42-7.25,30.4S277.84,286,300,303.59s12.62,36.38,2.57,29.26,3.69-24.43,28-10.43,19.84,38.8,7.89,31.42,3.3-24.68,22.89-4.84,61,27.45,89.81,25.51c42.52-2.86,77.47-12.53,79,32.06,1,29.95-36.73,38.78-36.73,38.78s13.79-47.1-2.87-56.13-54.76,4-81.6-4.72-39.05-18.32-42.74-14,3.3,16.28-12.21,18.83-30.53,4.71-35-4.83,5.35-21.38-3.3-30.79-56.87-11.83-91.47-101.64-44.35-108.69-21.46-119.63,41-8.6,48.4,22.44S269.63,243.93,287.27,265s65.15,62.13,70.94,89.9,5.93,32.56-49.19,29A733.26,733.26,0,0,1,158.4,358.08c-42.74-12.21-62.92-26.63-68.18,6.44S105.94,476.62,97,478.67s-27-42.06-11.19-43.42S92,456.94,154,455.91c64.37-1.07,97.24,3.35,156.22,12.75,60.74,9.7,101.3,15.42,154.22,2.7s55.75-25.42,59.15-16.94-.34,22.73-.34,22.73"/></svg>